<?xml version="1.0" encoding="utf-8"?>
<!-- Generator: Adobe Illustrator 21.0.0, SVG Export Plug-In . SVG Version: 6.00 Build 0)  -->
<svg version="1.1" xmlns="http://www.w3.org/2000/svg" xmlns:xlink="http://www.w3.org/1999/xlink" x="0px" y="0px"
	 viewBox="0 0 1366 768" style="enable-background:new 0 0 1366 768;" xml:space="preserve">
<style type="text/css">
	#espOut{fill:#ff0000}
	#espInt{fill:#ffffff}
	#letra{fill:#ff0000}
	#marco{fill:#ff0000}
	#marca{fill:#ff0000}
</style>
<g id="Capa_2">
</g>
<g id="marco">
	<path d="M281.6,595.6c-20.2-8.3-36.5-21.4-50.7-38.1c-19.3-22.5-21.3-48.6-16.5-75.4c3.1-17,9.9-33.5,16.1-49.8
		c12.3-32.2,33.2-58.9,55.6-84.6c1.3-1.5,3.1-2.9,3.6-4.7c0.8-2.6,1.7-6.2,0.6-8.1c-2.1-3.4-6-1.8-8.4,0.3
		c-4.9,4.2-9.7,8.6-13.8,13.6c-11.3,13.5-19.6,28.9-28.9,43.7c-8.7,13.8-16.3,27.8-21.5,43.2c-3,8.6-7.5,16.9-9.5,25.7
		c-2.7,12.1-3.8,24.7-5.1,37.1c-0.9,8.2-2.1,16.7-1.1,24.8c2.6,20.8,13.9,37.5,27.1,53.1c14.3,17,33.8,27.7,51.4,40.5
		c4.2,3.1,8.9,5.6,14.7,9.2c-0.9-6.5-1.9-11.4-2.2-16.3C292.8,602.1,287.8,598.2,281.6,595.6z"/>
	<path d="M1195.1,393.2c-3.9-26.2-12.1-51.2-20.2-76.2c-6.1-18.9-12.4-37.7-23-54.7c-6.1-9.7-13.1-18.8-20.1-28
		c-11.4-15-22.4-30.3-34.8-44.4c-18.1-20.5-41.2-34.5-65.6-46.5c-36.9-18-75.6-29.7-116.1-35.3c-46.9-6.5-93.8-5.1-140.5,1.5
		c-40.2,5.7-80.2,12.7-120.1,20.6c-18.8,3.7-37.4,9.7-55.4,16.6c-55.8,21.2-109.5,47.2-161.2,77c-7.6,4.4-14.9,9.3-22.3,14
		c3.6,5.7,4.6,5.9,11.3,2c43.6-24.8,88.9-46.3,135.9-64c36.8-13.8,74.4-25.4,113.2-32.4c14.4-2.6,28.7-6,43.3-7.4
		c19.1-1.9,38.3-2.4,57.5-3.4c17.9-1,35.9-1.9,53.8-2.8c6-0.3,11.9-1.1,17.9-1c9.5,0.3,18.9,1.3,28.3,1.9
		c40.3,2.5,77.4,14.4,110.9,37.1c20.5,14,41,28,61.3,42.1c3.7,2.5,7.6,5.2,10.1,8.8c15.9,23.2,31.8,46.2,42.3,72.8
		c11.5,29,22.7,58,29,88.6c5.7,27.8,7.8,55.7,2.5,83.8c-5.2,27.6-17,51.8-38.9,69.6c-15.1,12.2-32,22.4-48.5,32.7
		c-20.9,12.9-44,22.1-68.2,26.7c-45.2,8.7-90.6,16.6-136.1,23.8c-51.7,8.2-103.7,13.9-155.9,17.6c-50.4,3.5-100.6,8.2-151.2,8.2
		c-20.7,0-41.3,0.1-62,0.3c-3,0-6,0.8-10.5,1.5c3.1,4.3,5.4,7.5,7.7,10.7c3.9,5.5,7.7,11.1,11.9,16.4c0.9,1.2,3,1.9,4.6,2
		c8.9,1,17.9,1.9,26.9,2.6c55.8,4.6,111.7,6.8,167.8,6.3c48.5-0.5,96.9-3.5,145.1-8.7c55.6-6,110.5-15.3,164.6-29.4
		c36.8-9.6,73.5-19.5,108.1-35.6c40.2-18.8,70.8-47,86.3-89.7c3.9-10.6,7.4-21.3,11.2-32v-92
		C1195.7,394.4,1195.2,393.9,1195.1,393.2z"/>
</g>
<g id="letra">
	<g>
		<path d="M742.3,222.4c-3.5,4.1-6.5,0.9-9.8,0.8c-3.8-0.1-7.5,0.3-9.3,4.3c-2.1,4.8,1,8.3,3.8,11.5c2.2,2.5,5.3,4.3,8.4,2.1
			c4.1-3.1,8-3.5,13.1,0.4c0.6-5.1,1.4-8.8,1.4-12.6C749.8,225.1,743.9,220.4,742.3,222.4z M733.5,234.6c-1.2,0-2.4-1.5-3.6-2.3
			c1.3-1.1,2.5-2.8,4-3.3c0.9-0.3,2.4,1.3,4.9,2.8C736.3,233.2,734.9,234.6,733.5,234.6z"/>
	</g>
	<path d="M935.8,233.1c2.5-2.2,4.8-2.4,7.6-0.6c0.9,0.6,2.1,0.7,3.8,1.2c0.9-3.6,1.8-6.6,2.3-9.7c0.8-4.9-5-11.4-7.8-9
		c-4.4,3.9-7.8,0.8-11.6,0.9c-3.9,0.1-7.3,1-8.9,5c-1.5,3.6,0.9,9.3,5,12.6C929.6,236.1,932.9,235.7,935.8,233.1z M931.8,221.5
		c0.9-0.3,2.4,1.3,4.9,2.8c-2.5,1.4-3.9,2.8-5.3,2.8c-1.2,0-2.4-1.5-3.6-2.3C929.2,223.6,930.3,221.9,931.8,221.5z"/>
	<g>
		<path d="M618.4,227.6c-2.1,0.8-4.2,1.1-6.3,1.1c-1.6,0-3.5-0.9-4.9-0.4c-2.6,1-6,2.3-7,4.4c-2.2,4.8,1.4,8.6,4.6,11.6
			c1.6,1.5,5.5,2.6,6.9,1.7c4.2-2.7,8-4.1,12.7-0.5C628.5,233,627,229.2,618.4,227.6z M610.7,239.8c-1.2,0-2.4-1.5-3.6-2.3
			c1.3-1.1,2.5-2.8,4-3.3c0.9-0.3,2.4,1.3,4.9,2.8C613.4,238.4,612.1,239.7,610.7,239.8z"/>
	</g>
	<g>
		<path d="M645.7,228.4c1.9-4,3.8-7.7,5.4-11.5c1.2-2.9,1.5-5.9-2.1-7.6c-3.3-1.6-6-0.5-7.5,2.6c-3.1,6.2-6.4,12.4-8.8,18.9
			c-3.1,8.6,2.4,14.6,11.3,12.9c4.3-0.8,8.8-2.2,9.8-7.2C655,231.1,649.9,230.5,645.7,228.4z M641.9,237.4c-1.2,0-2.4-1.5-3.6-2.3
			c1.3-1.1,2.5-2.8,4-3.3c0.9-0.3,2.4,1.3,4.9,2.8C644.6,236.1,643.3,237.4,641.9,237.4z"/>
	</g>
	<g>
		<path d="M814.7,211.2c-7.9-5.5-8.8-5.2-12.4,2.5c-1.4,3.1-3.1,6.1-4.6,9.1c-3.5-1.3-6.3-2.7-9.3-3.3c-4.9-1.1-8.3,1.4-10.7,5.5
			c-2.3,4-2.1,8,0.8,11.6c3.1,3.9,7.1,3.3,10.8,1.3c3.1-1.7,4.6-0.3,6.7,1.9c1.2,1.2,4.1,1.4,6,1.1c2.6-0.4,2.4-2.4,2.3-4.9
			c-0.1-3.8,0.7-7.9,2.2-11.3C808.7,219.9,811.9,215.6,814.7,211.2z M784,232.7c1.3-5.7,2.8-6.3,7.9-3.3
			C789,230.7,786.9,231.5,784,232.7z"/>
	</g>
	<path d="M904.8,204.9c-1.2-1.1-4.2-2.2-4.5-1.9c-2.4,3-5,1.7-7.7,1.2c-5.1-0.9-10.2-1.6-15.3-2.4c0,0.1,0,0.2-0.1,0.3
		c-1.3,0.1-2.7,0.1-4,0.2c-16.5,1.4-17.6,12.7-12.6,23.3c4.1,8.6,11.3,14.8,20.4,18.2c6.3,2.4,9.1,1.5,12.3-4.6
		c2.3-4.3,5.1-6.7,10-6.5c1.3,0.1,2.6-0.4,3.9-0.8c4-1.3,7.5-3.2,8.3-7.7c0.9-4.8-1-8.7-4.4-12.1C909,209.8,907.1,207.1,904.8,204.9
		z M895.5,216c-0.6,2.2-1.8,4.8-5.4,3.4c-1.5-0.6-3.4-0.1-5-0.2c0.3,1.9,0.2,3.9,1,5.5c1.8,3.6,1,6-3,7.1
		c-5.6,1.5-15.8-4.1-17.5-9.6c-1.3-4.1,0.6-7.1,4.2-8.4c4.4-1.7,9.1-2.5,12.4-3.4c4.6,0.6,7.9,0.7,10.8,1.7
		C894.3,212.4,895.8,215,895.5,216z M903.8,222c-0.7,0.2-2.8-2.3-2.6-2.5c1.1-1.6,2.4-3.3,4-4.3c0.5-0.3,2.2,1.6,4.7,3.4
		C907.1,220.2,905.5,221.5,903.8,222z"/>
	<path d="M695.4,221.6c0.3,0.2,2.1-1.7,4.2-3.4c-2.6-1.9-4.3-3.5-6.3-4.4c-0.3-0.2-2.8,2.8-2.6,3.1
		C691.9,218.7,693.6,220.4,695.4,221.6z"/>
	<path d="M616.7,223.5c2.5-1,5.4-1.8,7.8-3.4c1.2-0.8,2-3.1,1.8-4.5c-0.1-0.8-2.8-2-4-1.8c-3.6,0.7-7.1,1.8-10.4,3.2
		c-2.6,1.1-2.2,3.2-0.3,4.6C612.9,222.5,614.6,222.7,616.7,223.5z"/>
	<path d="M684.4,236.7c-1,3.2,0.4,5.1,3.5,5.9c3.1,0.7,5.6,0.3,6.4-3.4c0.4-2.1,1.1-4.2,1.5-6.3c1.3-7.2,0.9-7.8-7.1-10.2
		C687.2,227.5,685.8,232.1,684.4,236.7z"/>
	<path d="M674.1,223.9c-3.4,0.6-6.5,2.4-10,0c-0.4-0.3-3.4,1.5-3.5,2.5c-0.4,4.6-0.2,9.3-0.2,14.6c0.7,0.3,2.2,1,4.1,1.8
		c0.8-1.7,1.3-3.4,2.4-4.5c2.9-3.1,5.8-6.2,9.1-8.7c1.7-1.3,5.2-1.1,3.5-4.4C678.9,224.1,675.8,223.5,674.1,223.9z"/>
	<path d="M827.4,218.5c-4.5-2.4-7.9,0.8-11,3.6c-2.9,2.6-2.7,6-0.6,8.5c2.5,2.9,5.5,5.9,9,7.4c5.3,2.4,9.4-1.6,8.6-7.6
		c-8.6,4.5-9.8,4.4-12.6-1.6c1.7,0.1,2.8,0.1,4,0.2c3.4,0.1,7.8,1.2,9.1-2.9C835.3,221.5,830.3,220.1,827.4,218.5z M824.7,224.2
		c-0.9,0.1-1.9-0.1-2.2-0.6c0,0-0.3-0.6-0.4-0.9c-0.1-0.3-0.3-1.3,0.1-1.7c0.4-0.4,0.6-0.2,1.3-0.3s1,0,1.6,0s0.8,0.4,0.8,0.9
		s0.5,1.6,0.5,2.1C826.4,224.1,825.6,224.1,824.7,224.2z"/>
	<path d="M713.9,231.3c1.2,0,2.4-0.2,3.7-0.3c-0.2-1.4-0.1-3-0.8-4.2c-2.7-4.9-8.3-7.2-12.1-5.2c-4.2,2.2-5.9,8-3.1,13.1
		c1.5,2.8,3.8,5.5,6.3,7.4c1.4,1.1,4.4,1.5,6,0.8c2.1-1,3.4-3.4,5.1-5.2c-2-0.6-3.9-1.2-5.9-1.7c-0.5-0.1-1,0.1-2.8,0.2
		c-0.4-0.4-1.6-1.4-2.8-2.3c1.3-1,2.6-2.2,4.1-3C712.1,230.7,713.1,231.3,713.9,231.3z"/>
	<path d="M851.8,554.6c3.5,3.6,6.8,3.4,12.6,1.7c-2.5-2.9-4-5.3-6.1-6.7c-7.5-5.3-22.8-5-30.5,0.2c-10.4,7.2-10.3,22.5,0.5,28.9
		c9,5.3,18.7,5.4,28.2,0.9c4.2-2,7.5-5.4,7.3-12.9c-4.2,1.9-8.3,2.6-10.6,4.9c-4.9,4.9-13.1,6.3-18.4,2c-4.9-4-5.8-12.4-1.9-17.3
		C837.4,550.9,847,549.7,851.8,554.6z"/>
	<path d="M977.9,213.2c-2.3,3.6-4.4,3.3-7.1,0.7c-1.9-1.9-4.1-3.6-6.9-6c-1.7,6.1-2.9,10.7-4.4,15.3c-1.7,5.4-1.4,6,4,7.5
		c3.6,1,5.6-0.9,7.6-3.2c4.1-4.6,4.8-4.4,8.2,0.8c0.8,1.3,3.5,2.2,5.1,1.9c1.6-0.3,4.2-2.4,4.1-3.6c-0.3-4.4-0.7-9-2.4-13
		C983.6,208,981.2,208.1,977.9,213.2z"/>
	<path d="M881,548.5c-2,3.5-3.5,7.2-5.3,10.9c-3.2,6.8-6.4,13.7-9.6,20.5c0.4,0.6,0.7,1.1,1.1,1.7c3-0.7,8-0.6,8.8-2.3
		c4.3-9.7,12.6-5.4,19.4-6.1c1.2-0.1,3.3,1.3,3.9,2.6c2.6,5.7,6.7,5.4,12.6,3.2c-6-10.8-11.6-21.4-17.9-31.6
		C891.6,543.3,883.3,544.4,881,548.5z M881.9,567.5c2.4-5.1,4.1-8.5,6.5-13.6c2.5,4.8,4.2,8.1,6.5,12.6
		C890.4,566.9,887.1,567.1,881.9,567.5z"/>
	<path d="M711.6,579.9c-6.8,0.5-10-1.9-10.7-7.9c-0.6-5.7-1-11.4-1.4-17.2c-0.2-3.9-2.7-4.9-5.6-4c-1.8,0.6-4.2,2.9-4.2,4.5
		c-0.2,5.7,0.7,11.4,0.9,17.2c0.2,6.8,4.1,11,10.2,12.2c5.9,1.1,12.3,1.5,18.3,0.7c8.2-1.1,11.5-5.9,11.3-14.3
		c-0.1-5.3-0.7-10.6-0.8-15.9c0-3.9-1.3-5.8-5.6-5.7c-4.5,0.1-4.6,2.7-4.2,6c0.2,2.3,0.2,4.7,0.3,7c0,0,0,0,0,0
		c0.1,2.8,0.4,5.5,0.4,8.3C720.5,576.9,718,579.5,711.6,579.9z"/>
	<path d="M801.9,577c-5,1.8-10.3,2.6-14.1-1.9c-3.5-4.2-7-3.3-12.9-1.2c3.4,3.2,5.6,6.9,8.4,7.4c7.3,1.3,15,1.8,22.4,1.3
		c5.2-0.4,10-3.5,9.9-9.8c-0.2-5.9-4.9-8.1-9.8-9.3c-4.9-1.2-10-1.9-14.9-3.2c-1.4-0.4-3.3-1.9-3.4-3c-0.1-1.2,1.8-3.5,2.8-3.5
		c4,0.1,8,0.6,12,1.4c3.2,0.7,6.2,2.1,9.3,3.2c0.5-0.8,1-1.6,1.4-2.4c-1-1.7-1.7-3.7-3.1-5.1c-5.7-5.6-25.2-4.8-30.5,1.2
		c-3.4,3.9-3.2,7.9,0.7,11.2c2,1.7,4.8,2.7,7.4,3.4c4.7,1.3,9.6,2,14.2,3.3c1.3,0.4,3.1,2.1,3.1,3.3
		C804.7,574.6,803.2,576.5,801.9,577z"/>
	<path d="M659.6,571.7c4.7-1.6,10.3-0.3,15.5-0.3c0.5,4.2,1.1,6.9,1.2,9.7c0.1,3.7,1.5,5.3,5.5,5.1c4.2-0.2,4.9-2.5,4.6-5.9
		c-0.6-7.2-1.2-14.4-1.7-21.6c-0.6-8.7-1-9-10.1-6.4c0,1.7-0.3,3.6,0.1,5.4c1.2,5.5-1.1,7.5-5.8,7.4c-1.2,0-2.3,0-3.5,0
		c-10.1,0.5-10.7,0.6-10.5-8.4c0.1-3.6-1.7-4.8-5.2-4.7c-3.5,0.1-5,1.5-4.6,5.1c0.8,7.6,1.4,15.3,2,22.9c0.7,7.9,1.4,8.4,9.4,6
		C659.1,581.5,652.1,574.2,659.6,571.7z"/>
	<path d="M749.8,555.5c5.2-0.6,10.6-0.3,15.9-0.9c1.5-0.2,2.8-2.2,4.1-3.4c-1.5-1-3-2.9-4.5-2.9c-8.7,0-17.4,0.6-26.1,0.8
		c-3.6,0.1-4.9,1.8-4.6,5.2c0.4,6.1,0.8,12.3,1.1,18.4c0.5,11.9,0.5,11.9,12.6,11.7c1.7,0,3.4,0,5.1,0c0-0.2,0-0.4,0-0.6
		c4.5,0,8.9,0.3,13.4-0.1c1.6-0.1,3-1.9,4.5-3c-1.6-1.1-3.2-3-4.9-3.1c-5.3-0.3-10.6,0.5-15.9,0.1c-1.6-0.1-3.7-2.7-4.1-4.5
		c-0.2-1,2.4-3.7,3.9-3.9c4.8-0.7,9.8-0.4,14.6-0.9c1.3-0.1,2.4-1.6,3.6-2.5c-1.3-1-2.5-2.9-3.9-3c-4.9-0.3-9.8,0.3-14.6-0.1
		c-1.6-0.1-3-2.4-4.5-3.6C746.9,558,748.2,555.7,749.8,555.5z"/>
	<path d="M541.7,234.7c1.8-1.3,4-2,6.2-3c-4.2-4.2-9.1-5-14-2.5c-4.6,2.3-6.7,6.8-5.6,12.2c1,5,4.3,8.2,8.6,10.4
		c10.6,5.5,23.4,4.1,32.6-5.5c5.6-5.8,11.2-8.2,18.8-7.4c1.7,0.2,3.6-1.5,5.4-2.3c-1.7-1.3-3.1-3.4-5-3.8c-2.8-0.7-5.8-0.2-8.7-0.2
		c0.2-8.1,2.5-9.8,9.3-8c1.2,0.3,3.2,0.4,3.6-0.2c0.7-1,1-3.3,0.4-4.1c-1.9-2.2-4-4.6-6.6-5.7c-11.1-4.6-22.6-2.8-33.9-1.2
		c-3.8,0.5-4.7,3.9-2.3,6.2c2.3,2.2,5.8,3.8,9,4.1c4.3,0.4,8.8-0.6,13.8-1.1c-2.4,7.3-4.4,13.9-13.4,13c-0.9,9-11.3,14-18.6,9.2
		c-1.7-1.1-3.4-3.6-3.5-5.5C537.8,237.7,540.1,235.8,541.7,234.7z"/>
</g>
<g id="marca">
	<path d="M512.5,349.2c0.2-1.7-1.7-5.3-2.1-5.2c-3.2,0.5-7.4,0.8-9,3c-3.7,4.8-7.8,9.3-8.3,16.5c-1.4,18.3-4.4,36.4-6.5,54.6
		c-0.6,4.9-2.9,7.8-7.7,9c-4,1-7.8,2.5-11.6,4c-1.9,0.7-3.5,2-6.6,3.7c3.4,0.9,5,1.4,6.7,1.9c-1.1,6.5,1.9,9.5,8.4,8.5
		c6.5-1,6.6-0.8,5.8,5.8c-0.5,3.7-0.7,7.4-1.2,11.2c-1.3,9.6-2.8,19.2-3.8,28.9c-0.2,1.5,0.9,4.2,2,4.5c1.7,0.5,4.1-0.1,5.7-1
		c2.9-1.7,5.7-3.9,8.2-6.2c1.5-1.3,3.2-3.1,3.4-4.9c1.6-11.1,2.9-22.3,4.1-33.4c0.9-8.2,3.4-14.8,12.5-16.9c2.5-0.6,4.8-2.1,7.3-3
		c6-2.3,7.5-1.3,7.1,5.1c-0.7,10.1-1.7,20.1-2.5,30.2c-0.2,2.4-0.9,4.9-0.4,7.2c0.2,1,3.6,2.5,3.9,2.2c2.8-3,9.3-1.9,9.2-8.2
		c0-0.4,1.3-0.8,1.6-1.4c1.1-1.7,2.8-3.5,3-5.3c1.3-12.1,2.5-24.2,3.3-36.3c0.3-4.7,1.8-7.9,6.3-9.5c3.5-1.3,5.3-3.3,4.7-7.6
		c-0.6-4.6-0.1-9.3-0.1-14c-8.2,1.2-8.2,1-7.4-7c0.2-2.5,0-5,0-8.4c-2.6,1.5-4.2,2.5-5.8,3.4c-0.5-0.2-1-0.4-1.5-0.6
		c14.2-13.4,9.6-30.5,11.2-45.9c-3.1-0.8-5.3-1.5-7.9-2.2c-0.9,1.2-1.8,2.6-3.1,4.5c-4.4-3.3-5.9-1.7-6.3,3
		c-1.3,16.6-3.4,33.1-4.3,49.8c-0.6,11.3-2.7,20.5-15.5,23.4c-1.6,0.3-2.8,1.9-4.4,2.5c-1.6,0.6-4,1.5-5.1,0.8c-1-0.6-1-3.2-1.2-4.9
		c-0.1-0.9,0.2-1.9,0.3-2.8C507.3,388.5,510,368.9,512.5,349.2z"/>
	<path d="M846.3,338c-8-14.4-13.8-14.5-24.1-1.4c-18,22.9-27.3,49.3-31,77.7c-1.9,14.2-2.7,28.3,7.5,40.6c6.6,8,11,10,20.3,5.4
		c7.3-3.7,13.8-8.8,20.5-13.5c6.1-4.2,4.8-11,7-17.9c-6,3.8-10.5,7.1-15.4,9.8c-14.4,8-22.6-1.1-23.5-13.6c-0.2-2.6-0.2-5.3,0.4-7.8
		c3.3-14.6,6.5-29.2,10.2-43.7c1.5-5.8,3.8-11.4,6.3-16.8c0.8-1.8,3.3-2.9,5-4.3c0.9,1.9,2.4,3.8,2.5,5.8c0.2,3.1-0.6,6.3-1.1,9.4
		c-0.9,5.6-1.8,11.2-2.8,16.8c0.5,0.2,1,0.5,1.5,0.7c1.4-1.9,2.9-3.8,3.5-4.6c2.9-1,4.6-1.5,6.1-2.2c1.3-0.6,2.7-1.2,3.7-2.1
		c1.8-1.8,4.5-3.6,4.8-5.7c1-7,1.6-14.1,1.5-21.2C849.2,345.4,848.1,341.2,846.3,338z"/>
	<path d="M1025.3,325.8c-5.3-2.1-5.7-3.4-7.8,2.2c-1,2.8-1.8,5.7-2.4,8.6c-3.2,15.6-6.6,31.1-9.4,46.7c-2.8,15.6-5.2,31.4-7.2,47.1
		c-1.1,8.9,0.3,17.7,6.5,24.8c1.3,1.5,5.2,2.9,6.5,2.1c5.4-3.6,10.3-8,15.4-12c6.1-4.8,4.2-11.4,4.3-18.1c-1.7,1.1-2.9,2.1-4.2,2.7
		c-3.2,1.4-6.6,2.7-9.8,4c-0.5-3.4-2.1-6.9-1.5-10c3.8-20.8,7.9-41.5,12.2-62.2c0.3-1.4,2.2-2.5,3.4-3.8c0.8,1.6,1.6,3.3,2.3,4.9
		c0.2,0.5,0,1.1-0.1,1.7c-2.7,14.6-5.8,29.1-10.5,43.3c-0.1,0.3,0.2,0.7,1,2.7c1.5-2.2,2.6-3.5,3.3-5c7-16.9,11.9-34.4,10.6-52.9
		C1037.1,342.4,1038.6,331.1,1025.3,325.8z"/>
	<path d="M986.8,327.5c-1.4-0.5-2.4-1.9-3.6-2.9c-1.3,1.5-2.9,2.9-3.7,4.7c-1,2.2-1.5,4.6-2,7c-2.6,12.8-5.1,25.7-7.6,38.5
		c-4.3,21.6-9.2,43.2-8.3,65.5c0.2,6.4,2,12.1,6.4,16.9c2.5,2.7,5.5,3.7,8.4,1c5.6-5.1,11.1-10.5,16.4-15.9c1.1-1.1,1.7-3,1.7-4.5
		c0-2.9-0.5-5.9-0.9-9.4c0.1,0-0.3-0.1-0.6,0c-2.1,1.6-4,3.5-6.3,4.7c-2,1.1-4.8,2.4-6.5,1.7c-1.3-0.6-2-4-2-6.2
		c0.7-22.4,7-43.8,11.7-65.6c0.3-1.4,1.9-2.6,3-3.9c0.8,0.2,1.6,0.4,2.3,0.6c-0.3,4.5,0.1,9-0.9,13.3c-2.6,12.1-5.8,24.1-8.6,36.1
		c-0.1,0.4,0.4,0.9,1.1,2.3c1.3-2,2.5-3.3,3.1-4.9c6.5-15.7,10.1-32.2,9.7-49.2C999.4,346,1001.5,333,986.8,327.5z"/>
	<path d="M855.3,388.1c-2.4,14-5.4,27.9-6.8,42c-0.7,7,1.1,14.4,2.7,21.5c0.5,2.3,3.7,4.8,6.1,5.5c1.6,0.4,4.5-2,6-3.8
		c3.9-4.9,7.3-10.2,10.9-15.4c0.6,0.1,1.2,0.3,1.8,0.4c0.3,1.3,0.9,2.7,0.7,4c-0.7,5.3-0.5,9.8,3.3,14.3c2.9,3.4,5.5,5,8.8,2.2
		c5.1-4.3,9.7-9.3,14.3-14.2c0.9-0.9,1.2-2.8,1.1-4.2c-0.1-3.3-0.5-6.6-0.8-10.1c-0.5,0.3-1.6,1.2-2.8,1.8c-1.9,1-3.8,1.8-5.7,2.7
		c-0.4-2.1-1.5-4.3-1-6.3c1.8-8.4,3.9-16.7,6.2-25c1.5-5.4-2.9-13.2-8.3-13.9c-0.9-0.1-2.3,0.6-2.7,1.3c-2.6,4.6-5,9.3-7.5,14
		c-4.1,7.6-8.1,15.2-12.2,22.7c-1,1.9-2.1,3.9-3.2,5.8c-1.1-0.6-2.2-1.2-3.3-1.9c0.2-3.1-0.2-6.3,0.6-9.3c2.1-7.4,4.7-14.6,7-21.9
		c0.6-1.9,1.4-4.6,0.6-5.8c-3-4.3-6.7-8.2-10.3-12c-0.4-0.5-2.7-0.1-3.2,0.6C856.5,384.5,855.6,386.4,855.3,388.1z"/>
	<path d="M590.9,400.1c-3.7,7.7-7.5,15.5-11.3,23.1c-0.9,1.8-2.2,3.4-3.3,5.2c-1.1-3.3-1.2-6.1-0.8-8.8c0.9-5.5,2.1-11,2.9-16.5
		c0.2-1.6-0.3-3.9-1.4-4.8c-3.7-3.2-7.8-5.8-12-8.8c-0.1,0.2-0.7,0.8-0.7,1.5c-1.5,18-3.4,36-4,54.1c-0.2,5.2,2.5,10.9,5.1,15.7
		c2.9,5.3,6.8,4.7,9.3-0.9c1.8-3.9,3.1-8,4.9-11.9c1.5-3.4,3.4-6.7,5.1-10.1c0.8,0.2,1.5,0.4,2.3,0.6c0.2,3.1,0,6.2,0.6,9.3
		c1.1,5.4,1.9,11.1,4.1,16c2,4.5,5.5,4.3,8.6,0.2c2.1-2.7,3.8-5.6,6.2-8c6.9-6.7,3.6-14.8,4.5-23.3c-3,2.4-5.1,4.1-7.2,5.8
		c-0.5-0.3-1.1-0.6-1.6-0.8c0-3.1-0.1-6.2,0-9.2c0.3-5.2,0.6-10.4,1.2-15.6c0.6-5.5-1.9-9.7-5.6-13.4
		C595,396.4,592.8,396.1,590.9,400.1z"/>
	<g>
		<path d="M950,431.6c-4.9,2.6-9.6,5.7-14.8,7.5c-4.9,1.7-9.1-1-10.1-5.3c-1.3-5.2,1.9-7.2,6.1-9c5.3-2.3,10.5-4.9,15.2-8.1
			c9.5-6.6,12.1-21.5,6-31.2c-3.8-6-8.9-7.7-15.3-4.6c-2.5,1.2-5,2.8-6.9,4.7c-12.5,13.1-20.9,28.2-21.7,46.7
			c-0.4,9.7,1.9,18.5,10.4,24.8c4.3,3.1,8.6,3.7,13,0.9c5.6-3.6,10.9-7.8,16.6-11.3c7-4.3,7.2-10.8,7.1-18.8
			C953.2,429.4,951.7,430.7,950,431.6z M933.5,398c1.4-0.5,5,1.4,5.3,2.7c0.5,2.2-0.2,5.2-1.5,7.1c-3.6,5.1-7.7,9.8-11.4,14.3
			C924.2,418.7,929.4,399.3,933.5,398z"/>
	</g>
	<path d="M1049.9,454.2c6.3,1.4,13.1-1.1,18.1-5.7c14.6-13.3,22.3-30.1,23.3-49.9c0.4-8.7-3.6-18.3-9.7-23.6
		c-3.3-2.8-7.2-3.9-10.8-1.4c-4.9,3.3-9.7,7.1-13.9,11.2c-14.3,14.1-21.8,31-19.8,51.4C1037.9,444.5,1041.4,452.2,1049.9,454.2z
		 M1059.9,398.8c1-2.3,4.9-4.9,7.3-4.8c2.4,0.1,4.7,3.4,6.7,5.6c0.9,1,1.5,2.9,1.2,4.2c-1.4,8.8-2.8,17.6-4.9,26.2
		c-0.6,2.3-3.3,4.5-5.6,5.9c-4.1,2.5-8.4,0.9-9.9-3.7c-1.1-3.3-1.3-6.9-1.9-10.4c-0.2-0.2-0.5-0.3-0.7-0.5
		C1054.6,413.8,1056.7,406,1059.9,398.8z"/>
	<path d="M617.9,449.6c1.6,7.2,5.7,13.4,12.9,14.9c6.4,1.4,13-1.1,17.5-6.2c14.3-16.5,21.4-35.3,15.2-57c-1.5-5.2-6.4-9.7-10.6-13.8
		c-1.3-1.3-5.4-0.9-7.7,0.1c-2.9,1.2-5.5,3.6-7.9,5.8c-12.9,12.2-20.5,27-21,45.1C616.9,442.3,617.1,446,617.9,449.6z M637.2,409.9
		c2.2-4.7,7-5.2,9.8-0.9c2.6,4,3.6,9,5.1,13.1c-1.7,7.2-2.6,13.5-4.8,19.4c-1,2.6-4.4,5.5-7.1,5.8c-4.2,0.6-6.6-3.2-7.4-7
		C630.5,429.7,632.8,419.5,637.2,409.9z"/>
	<path d="M673.7,442.1c0.7,2.1,7.5,2.2,11.5,3.2c1,0.3,2.7,0.8,2.7,1.3c0.1,1.1-0.4,2.7-1.2,3.3c-3.2,2.3-6.8,4-9.8,6.5
		c-1.9,1.6-3.6,4.2-4,6.6c-0.5,3.2,3.9,6.3,0.4,9.9c0.8,0.7,1.5,1.9,2.3,1.8c2-0.1,4.1-0.3,6-1.1c11.1-4.7,19.5-12.7,24.8-23.3
		c6.5-12.9,1-21.4-13-21.2c-0.2,0-0.4,0.1-0.6,0c-1.3-0.5-3.3-0.7-3.7-1.6c-0.4-1,0.2-3,1.1-3.9c2.5-2.5,5.5-4.5,8-7
		c5.4-5.5,14.9-9.3,9-19.9c-0.1-0.3,0-0.7,0.1-1.1c0.9-3.5,1.9-7,2.8-10.5c-0.4-0.3-0.8-0.7-1.2-1c-1.4,0.8-3.1,1.3-4.2,2.3
		c-6.9,6.2-14.4,12.1-20.4,19.1c-4.7,5.5-8.7,12.3-11,19.2C671.6,430,672,436.7,673.7,442.1z"/>
	<path d="M718.4,442.6c-0.9,4.5-1,9.2-1.5,15.2c0.1,0.3,0.1,2.2,1,3.4c4,5.1,13.9,3.7,16.1-2.6c2-5.7,2.8-11.9,3.8-18
		c0.2-1.2-0.5-3.1-1.4-4c-4.5-3.9-9.6-1.2-14.2-0.2C720.5,436.8,718.9,440.3,718.4,442.6z"/>
</g>
<g id="espInt">
	<path class="st0" d="M323.7,434c-1.7-3.1-3-5.2-4.2-7.4c-0.5,0.3-0.9,0.5-1.4,0.8C318.2,430.1,317.2,433.6,323.7,434z"/>
	<path class="st0" d="M382.5,521c0-3.5,0-7,0-10.5c-0.7,0.1-1.4,0.1-2,0.2c0.3,3.5,0.6,7,0.9,10.5C381.8,521.1,382.2,521,382.5,521z
		"/>
	<path class="st0" d="M401.9,443.4c0.4-0.3-0.6-2.2-1.3-4.2c-2.5,2.6-4.2,4.4-5.9,6.3c0.4,0.6,0.8,1.2,1.2,1.8
		C397.9,446.1,400.1,445,401.9,443.4z"/>
	<path class="st0" d="M391.2,590.9c1.5-2,3-3.9,4.5-5.9c-0.7-0.6-1.4-1.2-2.1-1.8c-1.6,1.9-3.3,3.7-4.9,5.6
		C389.5,589.5,390.3,590.2,391.2,590.9z"/>
	<path class="st0" d="M336.5,383c-1.1-5.7-2-10.4-3.1-16.2C331.5,372.3,332.9,380.1,336.5,383z"/>
	<path class="st0" d="M411.3,426.3c0-0.9-1-1.8-1.6-2.7c-1.4,1.9-2.8,3.7-4,5.6c-0.4,0.6-0.1,1.5-0.1,2.5
		C409.7,431.9,411.1,429.6,411.3,426.3z"/>
	<path class="st0" d="M412.5,478.5c-4.9,3.6-6.6,8.9-3.9,12.1C410,486.1,411.2,482.3,412.5,478.5z"/>
	<path class="st0" d="M317.9,478.2c1.2,6.1,2.5,12.2,3.7,18.4c0.4-0.1,0.9-0.2,1.3-0.3C321.1,490.4,324.1,483.4,317.9,478.2z"/>
	<path class="st0" d="M400.9,583.3c4.9,0.2,7.1-4.1,4.7-11.1C404.1,575.8,402.5,579.5,400.9,583.3z"/>
	<path class="st0" d="M325.3,472.5c-2.5,7.2-0.9,10.9,5.2,13C328.7,480.8,327,476.7,325.3,472.5z"/>
	<path class="st0" d="M314.3,287c-0.3,0-0.7,0-1,0c0,7,0,14,0,21c0.3,0,0.7,0,1,0C314.3,301,314.3,294,314.3,287z"/>
	<path class="st0" d="M424.4,463.8c0.5,0,0.9,0,1.4,0c0-6.7,0-13.4,0-20.2c-0.4-0.1-0.8-0.3-1.2-0.4
		C422.8,450,424.1,456.9,424.4,463.8z"/>
	<path class="st0" d="M390,502.9c4.1-4.3,7.8-8.2,11.5-12.2C393,493.5,388,498.9,390,502.9z"/>
	<path class="st0" d="M386.7,583.9c-0.8-3.1-2-6.2-3-9.3c-0.7,0.1-1.4,0.2-2.2,0.2c0.3,3.5,0.5,6.9,1.1,10.4
		c0.2,0.8,1.9,1.4,2.8,2.1C385.9,586.1,386.9,584.8,386.7,583.9z"/>
	<path class="st0" d="M388.8,338.4c-0.8,3.8-1.8,7.6-2.5,11.4c-0.2,1.2,0.7,2.6,1,3.8c1.2-1.1,3.2-2.2,3.3-3.4c0.3-4-0.2-8-0.4-12
		C389.8,338.3,389.3,338.4,388.8,338.4z"/>
	<path class="st0" d="M344.1,420.9c-2.2-3.8-4.3-7.3-7.1-12C334.3,417.4,337.6,422.3,344.1,420.9z"/>
	<path class="st0" d="M418.8,466.8c1.1-1.1,2.9-2,3-3.2c0.3-2.6-0.3-5.4-0.6-9.3c-4.8,2.9-5.6,6-5,9.4
		C416.4,464.8,417.9,465.7,418.8,466.8z"/>
	<path class="st0" d="M396.2,386.5c-0.3,1.2,1.3,2.7,2.1,4.1c1.2-1.2,3.4-2.3,3.5-3.5c0.3-3.2-0.3-6.4-0.6-9.6
		c-0.5,0-1.1-0.1-1.6-0.1C398.4,380.4,396.9,383.3,396.2,386.5z"/>
	<path class="st0" d="M409.6,602.1c2.4-5.7,4.8-11.5,7.2-17.2c-0.5-0.2-1-0.5-1.4-0.7C410.1,586.4,407.6,593.2,409.6,602.1z"/>
	<path class="st0" d="M418.4,472.2c-0.6-0.1-1.3-0.3-1.9-0.4c-1.3,6.5-2.6,13.1-4,20.1C418,488.4,421.2,476.9,418.4,472.2z"/>
	<path class="st0" d="M314.4,248.2c-0.4,0-0.7,0-1.1,0c0,11.5,0,23,0,34.5c0.4,0,0.7,0,1.1,0C314.4,271.2,314.4,259.7,314.4,248.2z"
		/>
	<path class="st0" d="M383.6,473.4c-7,5.4-7,11.1,0.1,15.6C386.7,485.1,386.6,477.3,383.6,473.4z"/>
	<path class="st0" d="M332.4,509.7c1-3.4,1.1-6.5,2.6-8.6c2.3-3.5,0.6-5.4-2.1-5.8c-1.6-0.2-4.7,1.9-5.3,3.6
		C326.2,502.9,327.3,506.7,332.4,509.7z"/>
	<path class="st0" d="M378.8,594.7c-0.4,0.6-0.7,1-0.9,1.5c-2.9,6.4-3,6.3-8,1.4c-2.1-2.1-4.9-3.5-7.4-5.2c-0.5,0.5-0.9,1-1.4,1.6
		c0.9,3.7,1.9,7.3,6.9,8c2.1,0.3,4,1.7,6,2c2.2,0.3,6,0.8,6.5-0.2C382,601,382.3,597.5,378.8,594.7z"/>
	<path class="st0" d="M331.3,460.8c-0.1-0.9,0.1-1.9-0.3-2.4c-5.3-5.6-0.1-15.1-7.4-20c-0.3-0.2,0-1.4,0.1-2.1
		c-0.5-0.2-1-0.4-1.5-0.6c-0.7,1.5-1.9,2.9-2,4.4C319.9,448.8,325.1,458.4,331.3,460.8z"/>
	<path class="st0" d="M333.3,409.5c-1.4-8-2.8-15.8-4.2-23.5c-0.7-3.8-2.6-4.3-5.2-1.7C322.9,397.4,326.6,407.9,333.3,409.5z"/>
	<path class="st0" d="M419.2,553.3c-0.4-0.6-3.6-0.3-4.1,0.4c-1.6,2.8-2.6,6-3.9,9c5.8,2.2,5.9,2.7,3.3,7.9
		c-1.3,2.7-2.2,5.7-3.2,8.6c7.2-4,11.2-12.7,10.1-20C421.2,557.1,420.4,555,419.2,553.3z"/>
	<path class="st0" d="M353.4,555.7c0.5-1.2,0.9-2.5,1.4-3.7c0.5-0.2,1-0.5,1.5-0.7c4.3,6.4,8.6,12.7,12.9,19.1
		c-0.5-14.2-12-29.5-22.4-29.3c1.9,5.3,3.7,10.2,5.5,15.1C352.7,556,353,555.9,353.4,555.7z"/>
	<path class="st0" d="M336.5,399.1c3.5,6.6,7.5,13,10.7,19.7c1.2,2.4,3.9,6.3-2.7,7.9c11.5,6.9,8.2,19.3,12,28.9
		c-1.8-23.1-5.9-45.4-21.2-64C334.9,394.2,335.3,396.8,336.5,399.1z"/>
	<path class="st0" d="M344.9,553.8c-1.6-5.3-3.2-10.6-4.9-16.1c1.8-0.5,3.5-1,5.2-1.4c0.1-0.4,0.3-0.9,0.4-1.3
		c-4.3-2.1-8.7-4.2-13.6-6.6c2.8-0.5,4.8-0.9,6.8-1.3c0.1-0.5,0.2-1.1,0.3-1.6c-3.2-1.9-6.5-3.8-10.9-6.3c0.4,3.2,0.2,4.8,0.8,6
		c3.3,6.6,5.8,13.3,7.3,20.5c0.1,0.5,0.4,0.9,0.7,1.3c2,2.7,4.1,5.3,6.2,8C343.8,554.5,344.4,554.1,344.9,553.8z"/>
	<path class="st0" d="M407.2,446.6c0.6-0.9,1-1.8,1.5-2.6c0.7-0.9,1.5-1.7,2.3-2.5c0.5,0.1,0.9,0.2,1.4,0.3c0,1.6-0.2,3.2,0.1,4.7
		c0.2,1.3,1.1,2.5,1.7,3.7c1.2-0.6,3.3-1,3.6-2c1.1-3.4,2.3-7,2.2-10.6c-0.1-3.3-2.7-5.1-6.3-4.8
		C406.2,433.5,403.4,439.4,407.2,446.6z"/>
	<path class="st0" d="M351.1,530.5c-2.4-4.3-4-7.3-6.1-11c2.3-0.2,4.2-0.3,6.1-0.4c-0.7-4.3-9.5-13.7-13.5-14.3
		C336.4,513,342.2,525,351.1,530.5z"/>
	<path class="st0" d="M360.8,487.4c0.6-0.1,1.2-0.3,1.8-0.4c-1.3-7.2-2.5-14.4-3.9-22.1C351.9,471,353.3,482.4,360.8,487.4z"/>
	<path class="st0" d="M421.6,525.5c-1-0.7-3.4-0.6-4.6,0.1c-4.1,2.7-8.1,5.7-11.9,8.9c-1.9,1.6-3.3,3.7-5,5.7
		c5.8,2.7,9.1,1.6,10.9-3.8c0.9-2.7,2.5-5.1,6.3-4.1c-0.8,5.1-8,8.5-3.3,15.3c5.7-5,7.1-11.5,8.8-17.8
		C423,528.6,422.5,526.2,421.6,525.5z"/>
	<path class="st0" d="M402.4,450.2c-2.7,0.7-5.4,3.1-7.3,5.5c-1.6,2.1-2.3,5.1-3,7.8c-0.3,1,0.5,2.2,0.8,3.4c1-0.4,1.3-0.5,1.5-0.7
		c1.8-1.6,2.9-5.6,6-3.2c1.2,1,0.7,4.8,0.1,7.1c-1,4.1-2.5,8.1-3.9,12.1c0.8,0.3,1.7,0.5,2.5,0.8c2.9-7.4,6-14.8,8.6-22.3
		C408.9,457.7,404.6,449.6,402.4,450.2z"/>
	<path class="st0" d="M370.5,507.2c0.4,0.4,0.6,1.1,0.9,1.8c-1.2,0.9-2.3,1.6-2.6,1.8c1.3,1.6,2.5,3.2,3.9,4.7
		c1.5,1.8,3,3.5,4.6,5.2c0.5-0.3,1.1-0.7,1.6-1c-1.7-10.3-7.4-19.3-12.5-29.4c9.1,0.9,8.9,10,14.5,13.6c0.1-7-2.8-13.1-7.8-15.9
		c-1.8-1-4.8-1.9-6.3-1.1c-1.6,0.8-2.6,3.7-2.8,5.8C363.1,498.8,366.6,503.1,370.5,507.2z"/>
	<path class="st0" d="M401.7,598.3c0.6-2.1,1.4-4.2,2-6.4c0.3-1,0.3-2,0.4-3c-0.6-0.3-1.1-0.6-1.7-0.9c-2.2,3.2-4.4,6.4-6.4,9.7
		c-0.6,0.9-1,2-1.3,3.1c-0.1,0.4-0.3,0.7-0.4,1h0c-0.4-0.2-0.7-0.5-1.1-0.7c-1.2-0.6-2.3-1.3-3.2-2.2c-1.6-1.9-2.8-4.1-4-6.1
		c0,9.4,0,18.3,0,28.5c2.5-1.6,4.2-2.2,5.2-3.3c4.9-5.5,7-12.6,10.5-18.8C401.8,599.1,401.6,598.6,401.7,598.3z"/>
	<path class="st0" d="M368,478.8c0.7-1.7,1.5-3,1.8-4.3c1-4.5,1.8-9.1,3-13.6c0.6-2.2,1.9-4.3,2.9-6.4c1.6,1.6,3.1,3.1,4.7,4.7
		c0.2,0.2,0.6,0.1,2.3,0.3c-0.3-4.7,0-9.3-1.1-13.6c-1.1-4.3-5.3-4.9-8.6-1.9C365.7,450.2,363.7,470.6,368,478.8z"/>
	<path class="st0" d="M317.3,424.2c2-2.5,3-3.7,4-4.9c0.9,1.5,1.8,3,2.6,4.6c0.8,1.7,1.3,3.5,2,5.6c6.3-6.1,6.3-9.5,1.1-15.8
		c-2.2,1.2-4.3,2.3-6.5,3.5c-1.9-29-3.8-57.3-5.6-85.6c-0.5,0-1,0-1.5,0.1C314.6,362.3,315.9,392.8,317.3,424.2z"/>
	<path class="st0" d="M373.9,573.2c1.6-2.6,2.3-4.1,3.4-5.3c12.8-14.8,4.2-35-6.6-44.6c-2-1.8-4.2-2-4.5,1.5c-0.6,5.7,0,11.2,2.3,15
		c2.5-1.1,5.1-3.1,6.2-2.5c5,2.8,7.4,19,3.6,25c-1.3-3-2.4-5.6-3.6-8.3c-0.3,0.4-0.6,0.7-0.6,0.9c0.2,2.3,0.4,4.6,0.6,7.3
		c-1,0.2-2,0.5-3.8,1C371.8,566.4,372.7,569.2,373.9,573.2z"/>
	<path class="st0" d="M305.5,366.6c0.4,0,0.8,0,1.2,0c0-37.7,0-75.4,0-113.1C302.9,291.1,302.7,328.8,305.5,366.6z"/>
	<path class="st0" d="M332.2,426.6c-1.1,0.5-1.6,3.5-1.4,5.2c1.3,10.4,5.1,20,10.7,28.8c2.5,3.9,5.6,7.4,8.4,11.1
		c0.5-0.3,1-0.7,1.4-1c-3.2-6.1-6.3-12.1-9.6-18.1c-1.8-3.4-4-6.5-5.8-9.9c-0.5-0.9-0.1-3.1,0.5-3.4c1.1-0.5,3-0.5,3.9,0.2
		c1.4,1,2.4,2.7,3.4,4.2c2.2,3.6,4.3,7.3,6.5,10.9c0.1-5-0.1-10-2.2-14.1c-2.5-4.9-6.3-9.1-10.1-13.2
		C336.9,426.2,333.8,425.9,332.2,426.6z"/>
	<path class="st0" d="M398.8,546.4c-5.6,6.2-7.6,13.8-9.3,21.6c0.4,0.2,0.8,0.4,1.2,0.6c1-1.4,2-2.8,2.8-4.3
		c0.9-1.6,1.2-3.5,2.3-4.9c0.8-1.1,2.5-1.6,3.7-2.4c0.1,1.5,0.6,3.1,0.1,4.4c-0.7,2-1.9,3.9-3,5.7c-2.5,4.3-5,8.5-7.9,13.6
		c1.7-0.5,2.7-0.6,3.5-1.1c8.7-5.9,14.1-14,14.7-24.7c0.1-2.6-0.9-5.6-2.2-7.9C403.5,545.1,401,543.9,398.8,546.4z"/>
	<path class="st0" d="M425.8,430.8c0.4-45.6-8.3-90.3-12.4-135.5c-0.5,0.1-1.1,0.1-1.6,0.2c4.1,45.2,8.2,90.3,12.3,135.5
		C424.6,430.9,425.2,430.9,425.8,430.8z"/>
	<path class="st0" d="M352.3,572.9c5.2,5.9,10.1,12.1,15.3,18.1c2,2.3,4.2,3.7,7.3,1.3c3.2-2.6,2.6-5.4,0.3-7.7
		c-3.6-3.6-7.4-7.2-11.7-10.1c-5-3.4-10.6-6.1-16-8.9c-1.2-0.6-3.4-1.4-4-0.8c-1,0.9-1.9,3.1-1.4,4.3c2.2,6,4.8,11.9,7.5,17.8
		c0.5,1,2.3,1.4,3.4,2.1c0.5-0.4,1-0.7,1.5-1.1c-3.2-6.3-6.4-12.7-9.6-19c0.5-0.2,0.9-0.5,1.4-0.7
		C348.3,569.7,350.6,571,352.3,572.9z"/>
	<path class="st0" d="M391.9,370.5c-0.5-0.3-1.1-0.5-1.6-0.8c-0.4,0.7-0.8,1.4-1.1,2.2c-4.4,9.1-8.9,18.2-13.2,27.3
		c-0.5,1.1-0.9,2.7-0.6,3.8c2.6,9.5,3,19,0.1,28.5c-0.4,1.3,1.1,3.2,1.8,4.8c0.7-1.6,2.1-3.2,2.1-4.8c-0.3-8.4,0.2-16.6,3.4-24.5
		c0.7-1.7-0.6-4.2-0.9-5.8c3-4.7,6.4-9.3,9.1-14.2C393.9,381.8,394.3,376.1,391.9,370.5z"/>
	<path class="st0" d="M322,458.9c-2.8-3.8-4.8-8.7-5.6-13.3c-0.9-4.6,0.4-9.6,0.2-14.4c-1.4-37.9-2.9-75.8-4.4-113.7
		c0-0.8-0.3-1.7-0.5-2.5c-1.1,52.6-1.6,105.2,5.3,157.4c0.5-0.1,1-0.1,1.4-0.2c1-1.7,1.6-3.8,3-4.9C326,463.5,325.6,463.9,322,458.9
		z"/>
	<path class="st0" d="M376.1,392.9c2.9-7.4,5.3-15,8.5-22.2c1.1-2.5,4-4.2,6.1-6.3c0.7,0.2,1.4,0.5,2.1,0.7c-0.7-2.7-1.5-5.4-2.2-8
		c-2.6,1.3-6.2,2-7.7,4.1c-3.6,5.3-6.7,11.1-9.3,17c-1.9,4.3-3,9.1-3.8,13.8c-0.2,1.3,1.9,3,2.9,4.5
		C373.9,395.3,375.5,394.3,376.1,392.9z"/>
	<path class="st0" d="M361.2,444.3c-1.4-0.3-2.2-0.5-3.9-0.9c0.7,3.9,1.3,7.4,2,11.6c4.5-4.1,5.6-6.7,5.1-11.2
		c-1.1-9.6-2.4-19.1-3.4-28.7c-0.1-1.5,1.3-3.2,2.1-4.8c1.5,1.3,3.9,2.3,4.2,3.8c0.6,3.4,0.1,6.9,0,10.4c0,5.4,0,10.7,0,16.1
		c0.6,0.1,1.3,0.1,1.9,0.2c0.6-0.9,1.5-1.7,1.8-2.7c2.8-12.8,1.4-25.4-1.2-38c-0.1-0.3-0.3-0.6-0.5-0.9c-2.3-3.7-5.6-3.8-7.6,0.1
		c-1.4,2.6-2.2,5.5-3.3,8.3c-4.1,11.3-1,22.3,2,33.2C360.6,441.8,360.8,442.9,361.2,444.3z"/>
	<path class="st0" d="M391.1,533.2c2.3-6.2,3.7-12.6,5.5-18.9c0.5-1.7,2-3.2,3.1-4.8c1,1.9,2.2,3.7,2.9,5.7c0.3,0.8-0.1,2-0.4,2.9
		c-2.5,7.1-5.1,14.2-7.7,21.3c6.1-6.9,9.8-15.2,11.7-24.3c0.4-2.1,1.3-5.5,2.6-5.9c2.5-0.7,5.4,0.5,8.4,0.9
		c-1.8,4.4-3.2,7.6-4.5,10.8c0.4,0.2,0.8,0.5,1.3,0.7c0.8-1.1,1.9-2.1,2.4-3.4c2.1-5.4,4.3-10.8,5.8-16.4c0.5-2-0.8-4.5-1.3-6.7
		c-1.6,1.1-3.3,2.2-4.9,3.4c-0.6,0.5-1,1.3-1.6,1.9c-3,3-4.7,2.7-6.8-1.1c-2.6-4.7-5-4.9-8-0.5c-2.3,3.4-3.9,7.3-6.3,10.7
		C388.1,517.2,388.6,525,391.1,533.2z"/>
	<path class="st0" d="M390.7,291.6c1.3,18.9,1.9,37.9,2.7,56.8c0.2,4.5,2.6,6.3,6.4,7.3c3-6.7-9.9-113.6-13.7-118.7
		c0,1.9-0.1,3.4,0,4.8C387.7,258.4,389.6,275,390.7,291.6z"/>
	<path class="st0" d="M396.1,395.1c-1.4,0-3.4,1.9-4,3.5c-3.2,8.2-6.3,16.4-8.7,24.9c-1.1,3.7-0.8,7.9-0.7,11.9
		c0,0.9,1.4,1.8,2.2,2.8c0.7-0.8,1.9-1.4,2.1-2.3c0.6-2.6,0.6-5.3,1.2-7.9c1.2-5.1,2.6-10.3,4.3-15.3c0.4-1.1,2.5-1.6,3.8-2.4
		c0.4,1.4,1.3,3,1.1,4.3c-0.4,2.4-1.5,4.7-2.2,7.1c-2,7.5-3.9,14.9-5.9,22.4c0.6,0.3,1.3,0.7,1.9,1c1.1-1.1,2.4-2,3.3-3.2
		c10.1-13.4,10.5-28.2,5.7-43.5C399.7,397,397.5,395.1,396.1,395.1z"/>
	<path class="st0" d="M354.4,505.6c1.1,0.6,1.9,1.7,3.2,2.9c-1.7,0.5-2.9,0.8-4.9,1.4c3.1,3.9,5.6,7,8,10c4.9-3.1,5.5-6,2.8-10.3
		c-1.8-2.9-2.1-6.6-3.2-9.9c-1.7-4.7-3.2-9.5-5.5-13.8c-4.6-8.3-10.9-15.1-20.1-18.6c-2.7-1-5.6-1.3-4.4,2.9
		C334.2,484.7,340,498.1,354.4,505.6z M337.7,476.5c1.1,0.1,2.3,0,3.2,0.5c1.2,0.7,2.5,1.8,3.3,3c3.5,5.4,6.9,10.9,10.3,16.4
		c0.5,0.9,0.5,2.1,0.7,3.2c-0.6,0.4-1.2,0.8-1.8,1.2c-5.3-7-10.7-14-15.9-21.1C336.9,479,337.6,477.6,337.7,476.5z"/>
	<path d="M326.6,193.7c0,0.1,0,0.1,0,0.2C326.6,193.9,326.7,193.8,326.6,193.7L326.6,193.7z"/>
	<path class="st0" d="M363.1,389.6c0,0,0.3,1.1,1.6,1.8c0,0,2.2-0.7,2.7-2.3s2.3-9.8,2.6-10c0,0,2.6-6.9,3.3-8.3
		c0.7-1.3,5.6-14.9,2-34.8c-3.6-19.9-7.1-17.7-7.7-21.5c-0.6-3.8-1-34.3-1.2-37.3s-3.8-78.9-3.8-78.9s-1-27.7-1.6-35.3
		c-0.6-7.7-1.6-34-3.2-32.6c-1.5,1.4-4,8.7-3.7,20.7c0.4,11.9,2.1,45.9,2.1,48.7s1.7,116.1,1.7,116.1s0,26-0.2,28.5
		c-0.2,2.5-1.2,12.9-0.9,15.3s1.5,20,5.7,29.9C366.8,399.5,363.1,389.6,363.1,389.6z"/>
	<path class="st0" d="M323.1,384.6c0,0-3.7-5-3.9-7.8c-0.1-2.8-2.8-64.6-2.8-64.6V263l0.9-71.5l0.5-10.9c0,0,1.6-1.6,3.9-6
		c2.3-4.4,6.2-23.4,5.6-6.1s-0.5,19.1-0.5,19.1s-0.2,7.7-0.7,10.8c-0.6,3.1-1.3,20.9-1.3,20.9s-1.5,45.4-1.8,50.2s1.1,50.1,1.1,50.1
		s4.9,47.7,4.6,50.1S327.7,382.5,323.1,384.6z"/>
	<path class="st0" d="M410.5,413c0,0-5.5-8.7-6.6-15.2c-1-6.6-2.2-25.1-2.2-25.1l-0.9-18.6c0,0-0.6-27.3-1.4-32.4
		c-0.7-5.1-1.8-15.5-1.8-15.5l-2.8-22l-3.3-28.6l-6.6-42.3l-1.9-17.3c0,0-1.8-1.3,0.8-1.1c2.6,0.2,4.9,0.2,4.9,0.2l3,13.2l11.3,46.9
		l7.9,31.3l4.1,9.9l3.6,30.6l8.9,80.2l-1.1,26.3l-12.9-3.8L410.5,413z"/>
	<path class="st0" d="M383.3,358.1l2.8-3.9v-8l1-20l-2-57.3l-5.8-35.8l-9.7-63l-2.1-18.9c0,0-4.7-4.2-6.8-6.1
		c-2.1-1.9-0.8,1.2-0.8,1.2l1.4,23.5l1.7,40l1.4,28.2l2.1,46.6l0.7,25.4c0,0-0.6,6.1,3.7,11.8c4.3,5.7,4.2,3.2,4.7,7.3
		c0.5,4.1,1.9,31.4,1.9,31.4S382.3,359.6,383.3,358.1z"/>
	<path class="st0" d="M351.3,411.3c0,0,10.9-13.9,10.6-18c-0.2-4.2-5.3-24.8-5.3-24.8l1-21l0.5-30.8l-0.3-57.2l-1.2-54.7l-0.8-17.4
		l-0.9-18.8l-0.7-23.7l-15.6-1.7l-5.3,11.4l-6.2,13.9l-0.5,15.1l-0.1,10l-0.3,2.2l-2.4,47.7c0,0-1.8,40.6-1.4,50.5
		s4.6,56.9,4.6,56.9l3.7,29c0,0,6.6,8.8,9.3,13.9C342.8,398.8,348.4,412.7,351.3,411.3z"/>
</g>
<g id="espOut">
	<path d="M353.3,500.8c-5.3-7-10.7-14-15.9-21.1c-0.5-0.6,0.2-2.1,0.3-3.1c1.1,0.1,2.3,0,3.2,0.5c1.2,0.7,2.5,1.8,3.3,3
		c3.5,5.4,6.9,10.9,10.3,16.4c0.5,0.9,0.5,2.1,0.7,3.2C354.5,500,353.9,500.4,353.3,500.8z"/>
	<path d="M331,213.8c0.6,0,1.1,0,1.7-0.1c-0.4-4.9-0.8-9.7-1.1-14.6c-0.2,0-0.4,0-0.6,0C331,204.1,331,208.9,331,213.8z"/>
	<path d="M326.6,193.7C326.6,193.7,326.7,193.8,326.6,193.7c0.1-0.3,0-0.6,0-1C326.6,193,326.6,193.4,326.6,193.7z"/>
	<path d="M328.3,145.2c-0.7,6.9-1.6,13.9-1.8,20.8c-0.2,8.9,0.1,17.8,0.2,26.7c0.7-16.7,1.5-33.4,2.3-50.1
		C328.7,143.4,328.4,144.3,328.3,145.2z"/>
	<path d="M357.4,198.2c-1.1-18.2-2.1-36.4-3.2-54.6c-0.3,0-0.6,0-0.9,0.1c0.8,18.2,1.6,36.4,2.4,54.6
		C356.3,198.3,356.8,198.3,357.4,198.2z"/>
	<path d="M336.2,126.2c-0.7,0-1.3-0.1-2-0.1c-1.2,20.8-2.4,41.5-3.6,62.3c0.1,0,0.2,0,0.4,0C332.7,167.7,334.4,147,336.2,126.2z"/>
	<path d="M339.3,143.2c-0.2,0-0.4,0-0.5,0c-0.6,22.2-1.1,44.4-1.7,66.6c0.7,0,1.5,0,2.2,0C339.3,187.6,339.3,165.4,339.3,143.2z"/>
	<path d="M368.2,366.7c0-4.9,0-9.8,0-14.7c0-6,0.2-11.9,0-17.9c0-1.3-1.5-2.5-2.3-3.8c-0.8,1.4-2.1,2.8-2.2,4.3
		c-0.3,3.6-0.3,7.3,0.1,10.9c0.7,7.1,1.6,14.2,2.4,21.4C366.8,366.9,367.5,366.8,368.2,366.7z"/>
	<path d="M377.3,675.1c0.4-0.2,0.9-0.4,1.3-0.6c-1.7-3.5-3.4-7-5.3-10.4c-11-20.8-22.8-41-38.6-58.6c-5.2-5.8-8.7-5.6-11.7,1.5
		c-3.9,9.5-7.4,19.3-10.9,29c-0.5,1.3-0.7,3.3,0,4.3c1,1.7,2.7,3.7,4.5,4.2c1,0.3,3.3-1.7,4.1-3.2c1.5-2.5,2.3-5.5,3.6-8.2
		c4.8-9.7,5.4-9.8,12.6-1.3c13.3,15.6,23.1,33.3,32.4,51.4c2.1,4.1,3.5,8.6,5.5,12.8c0.6,1.2,1.9,2.4,3.2,2.7
		c0.7,0.2,2.5-1.5,2.6-2.4c0.4-3.5,0.9-7.1,0.3-10.5C380.4,682,378.6,678.6,377.3,675.1z"/>
	<path d="M463.4,675.8c-3.5-6.6-7-13.3-10.7-19.8c-3.7-6.5-7.2-13.2-11.7-19.2c-5.9-7.9-12.1-8.2-18-0.5
		c-8.5,11.1-16.2,22.8-23.9,34.4c-1.4,2.1-2.2,5.7-1.5,8c1.3,4.1-0.1,6.5-2.8,9.8c-0.5-8.4-1.5-16-1.4-23.6c0.1-11-1.7-22.4,6-32.1
		c1.3-1.7,1.1-5.1,0.7-7.6c-0.5-3.4,0.2-5.5,2.8-7.8c11.3-9.9,18.4-22.1,19-37.6c0.1-2.1,1.2-4.5,2.4-6.3c3.7-5.6,5.1-11.4,2.4-17.9
		c-1.1-2.7-2.3-6.1-1.6-8.6c3-11.2,3.8-22.1,2.5-33.8c-1.2-10.7,1.6-21.7,1.7-32.7c0.3-23.8,1.2-47.7-0.4-71.4
		c-2.1-31.7-5.8-63.3-9.7-94.8c-2-16.5-5.9-32.7-9.1-49.1c-0.4-2-1.5-4-2.6-5.8c-1.1-1.9-3.2-3.4-3.6-5.3
		c-2.9-14.4-5.3-28.8-8.3-43.1c-1.2-5.6-3.7-11-5.7-16.4c-0.4,0.2-0.8,0.3-1.3,0.5l22,189.3c-0.3-45.7-8-90.7-11.8-136.3
		c0.6,0.3,1,0.5,1.1,0.7c0.6,2.7,1.1,5.5,1.6,8.3c3.2,19.3,7,38.6,9.5,58c2.6,20.6,4,41.4,5.7,62.1c1.2,14.8,2.2,29.5,2.9,44.3
		c0.1,1.7-2.1,3.6-3.2,5.3c-0.9-1.7-2.5-3.4-2.6-5.1c-0.6-9.8-0.8-19.6-1.3-29.5c-0.1-1.9-0.9-3.9-1.3-5.8c-0.7,0.1-1.5,0.2-2.2,0.3
		c0,4.6,0,9.1,0,13.7c-0.6,0.1-1.1,0.2-1.7,0.3c-1-2.3-2.8-4.6-3-7c-1-10.3-1.7-20.5-2.1-30.8c-0.6-13.1,0.1-26.4-1.3-39.4
		c-3-28.8-7-57.5-10.7-86.3c-1.7-13.4-3.8-26.7-5.8-40c-0.3-1.7-1.2-3.3-1.8-5c-0.3,0.1-0.7,0.2-1,0.4c0.9,15.5,1.8,31.1,2.7,46.6
		c-0.7,0.1-1.4,0.1-2.2,0.2c-5.5-29.8-7.3-60.3-15.3-89.7c-0.4,4.8,0.4,9.5,1.1,14.1c2.8,20.3,4.7,40.7,8.7,60.8
		c6.7,34,7.1,68.4,9,102.7c0.4,8-0.9,16-0.6,24c0.2,5.2-2.5,6.8-6.6,8.2c0-13.4,0.2-26.3-0.1-39.2c-0.3-13-1-26-1.8-38.9
		c-0.8-13-1.9-25.9-3.1-38.8c-1.2-12.7-2.9-25.3-4.3-37.9c-0.5,0.1-0.9,0.1-1.4,0.2c3,38.7,5.9,77.3,9,117.2
		c-6.4-3.4-9.2-6.8-9.1-12.6c0.1-8-0.1-16-0.4-24c-1.4-29.9-3-59.9-4.4-89.8c-0.9-18.5-1.3-36.9-2.3-55.4
		c-0.4-7.6-1.8-15.2-2.7-22.7c-0.4,0-0.8,0.1-1.2,0.1c0,2.4-0.2,4.8,0,7.2c1.8,19.7,4.3,39.4,5.3,59.2c1.9,37.1,2.5,74.3,4.6,111.3
		c0.5,9.7-2.6,20.7,5.7,29.1c0.1,0.1,0.1,0.3,0.2,0.5c4.1,13.5,5.1,27.2,2.4,41c-1,4.8-3.5,9.2-5.1,13.9c-1,3.1-1.5,6.5-2.5,9.7
		c-0.3,0.9-1.5,1.7-2.5,2c-0.3,0.1-1.7-1.3-1.7-1.9c0.4-5.6-5.2-11.1-0.3-16.8c0.3-0.3-0.2-1.3-0.3-1.9c-1.3-8.8-3.4-17.7-3.5-26.5
		c-0.1-8.4,1.8-16.9,2.8-24.6c-0.9-1.6-2.2-3-2.2-4.3c-0.1-10.1,0.3-20.3,0.1-30.4c-0.5-26.2-1.3-52.3-2-78.5c0-1.3-0.4-2.5-0.5-3.8
		c-1.2,1.3-1.2,2.4-1.2,3.6c0.3,26.5,0.6,53,0.9,79.5c0.1,10.5,0.3,21,0.5,31.4c0.1,4.2,0.3,8.4,0.1,12.6
		c-0.4,8.1-1.1,16.2-1.6,24.3c-0.1,2.2,0,4.3,0,7.1c-5.2-2.7-5.2-6.4-4.8-10.3c0.4-3.8,1.2-7.6,1.1-11.4c-0.2-16.3-1-32.6-1.1-49
		c-0.2-34.6-0.2-69.3-0.2-103.9c0-4.9,0-9.7,0-14.6c-0.5,0-1,0-1.5,0c-0.1,0.6-0.2,1.1-0.3,1.7c-0.3,15.3-1.1,30.6-0.9,45.8
		c0.5,43.2,1.4,86.3,2,129.4c0,1.8-0.3,3.7-0.4,5.6c-0.6,0.2-1.3,0.5-1.9,0.7c-1.5-2.4-3.5-4.7-4.3-7.3c-0.8-2.6-0.4-5.6-0.5-8.4
		c-1.1-40.3-2.3-80.6-3.4-120.9c0-1.3-0.4-2.5-0.6-3.8c-0.6,0-1.3,0.1-1.9,0.1c-0.2,4.5-0.7,9-0.6,13.5c1.6,37.1,3.3,74.2,4.9,111.3
		c0.1,2.6,0.6,5.8-0.6,7.9c-2,3.4-1,6,0.8,8.6c1,1.5,3.1,2.2,4.6,3.4c9.6,8.1,13,19,14.3,30.9c0.2,1.5-1.2,3.1-1.9,4.7
		c-1.3-1.1-3.2-1.9-3.8-3.3c-2.6-5.9-4.8-12.1-7.3-18c-1.2-2.8-2.9-5.5-4.4-8.2c-0.7,0.2-1.3,0.5-2,0.7c0.4,2.3,0.3,4.8,1.2,6.9
		c3.4,7.6,6.9,15.1,10.9,22.4c2.5,4.5,1.6,8.4-0.4,12.3c-1.3,2.5-3.6,2.8-4.8-0.2c-1.5-3.7-2.6-7.7-4-12.1c2.5,0.7,4.3,1.1,7,1.8
		c-8.7-7.7-12.3-16.6-13.4-26.7c-4-36.5-4.9-73.1-4.9-109.7c0-12.8,0.6-25.6,0.8-38.5c0-2-0.9-3.9-1.4-5.9c-0.4,0.2-0.9,0.3-1.3,0.5
		c0,27.2,0,54.3,0,81.5c-0.2,0-0.4,0.1-0.6,0.1c-0.4-1.1-0.8-2.2-1.3-3.4c0.9,12,0.7,24,1,36c0.1,5.9,1.1,11.9,1.5,17.8
		c0.1,1.4-0.7,2.8-1.1,4.2c-0.5-0.1-0.9-0.1-1.4-0.2c-0.5-3.1-1.1-6.1-1.3-9.2c-0.8-10.6-1.3-21.3-2.2-31.9
		c-2.9-33.1-2.4-66.2-0.4-99.3c0.4-6.2,0.8-12.5,1.3-18.7c-0.5,1.1-1.2,2.2-1.3,3.4c-1.4,29.3-3.4,58.5-3.7,87.8
		c-0.2,23.6,2.4,47.2,2.8,70.9c0.2,9.4,4.5,19-0.6,28.3c-1-2-2.7-4-2.8-6.1c-1.3-28.9-3.1-57.9-3.2-86.9
		c-0.2-34.1,1.1-68.3,1.7-102.4c0.1-7.5,0.1-15,0.1-22.5c-0.3,4.1-0.7,8.3-1,12.4c-0.7,0-1.4-0.1-2.1-0.1
		c-0.6-10.4,1.9-20.8,1.9-32.5c-0.9,1.7-1.4,2.2-1.5,2.8c-1.8,11-2.5,22.1-5,33.2c-3,13.6-1.9,28.1-2.5,42.3
		c-0.2,4.4,0.4,9.1-4.3,12c-0.7,0.5-1,2.1-1,3.2c-0.9,16-2.3,31.9-2.4,47.9c-0.2,26.8,0.4,53.6,0.6,80.4c0,1.3-0.4,3.4,0.2,3.9
		c5.8,3.9,4.3,8,1.9,13.4c-1.7,3.7-1.1,8.5-0.9,12.8c1.1,16.8,2.1,33.5,3.8,50.2c2.6,26,8.8,51.1,17.9,75.6c1.7,4.7,4.5,9.3,4.9,14
		c0.7,8.4,4.2,14.5,10.9,19.2c0.7,0.5,1.2,1.4,1.8,2.2c-5.6,2.5-7.3,5.3-6.4,11.1c0.3,2.1,0.7,4.4,1.8,6.2
		c7.4,12.7,12.9,26.8,25.1,36.2c1.7,1.3,3.2,3,4.5,4.7c0.8,1,2,2.5,1.7,3.4c-2,7.7,3.4,12.3,7,17.8c2.1,3.1,4.5,6.5,5.1,10.1
		c1.7,10.7,2.5,21.5,3.8,32.2c0.8,6.7,2.1,13.3,3.3,20.4c1.9-0.7,2.7-1,3.4-1.3c5.9-2.4,8.1-7.9,11.3-12.7
		c7.7-11.9,15.6-23.6,23.4-35.3c1.5-2.2,3.6-4.1,6.1-1.4c4.7,5.3,10.4,10,11.1,17.9c0.1,1.1,1.1,2.3,2,3.2
		c4.2,4.5,8.7,8.7,12.8,13.4c1.9,2.2,3.6,5.3,6.6,3.5c1.2-0.7,0.8-4.7,0.5-7.1C465.6,679.3,464.3,677.5,463.4,675.8z M306.7,366.6
		c-0.4,0-0.8,0-1.2,0c-2.8-37.7-2.7-75.4,1.2-113.1C306.7,291.2,306.7,328.9,306.7,366.6z M400.9,583.3c1.6-3.8,3.2-7.5,4.7-11.1
		C408,579.2,405.8,583.5,400.9,583.3z M406.9,554.9c-0.6,10.7-5.9,18.8-14.7,24.7c-0.7,0.5-1.7,0.6-3.5,1.1c3-5,5.5-9.3,7.9-13.6
		c1.1-1.9,2.3-3.7,3-5.7c0.4-1.3-0.1-2.9-0.1-4.4c-1.3,0.8-2.9,1.3-3.7,2.4c-1.1,1.4-1.5,3.3-2.3,4.9c-0.8,1.5-1.9,2.8-2.8,4.3
		c-0.4-0.2-0.8-0.4-1.2-0.6c1.7-7.8,3.8-15.4,9.3-21.6c2.2-2.5,4.7-1.3,5.9,0.7C406,549.3,407,552.3,406.9,554.9z M395.7,585
		c-1.5,2-3,3.9-4.5,5.9c-0.8-0.7-1.7-1.4-2.5-2.1c1.6-1.9,3.3-3.7,4.9-5.6C394.3,583.8,395,584.4,395.7,585z M393.3,509.8
		c2.4-3.4,4-7.3,6.3-10.7c2.9-4.4,5.4-4.2,8,0.5c2.1,3.8,3.8,4.1,6.8,1.1c0.6-0.6,1-1.4,1.6-1.9c1.6-1.2,3.3-2.3,4.9-3.4
		c0.5,2.3,1.9,4.7,1.3,6.7c-1.5,5.6-3.7,11-5.8,16.4c-0.5,1.2-1.6,2.2-2.4,3.4c-0.4-0.2-0.8-0.5-1.3-0.7c1.3-3.2,2.7-6.4,4.5-10.8
		c-3-0.4-6-1.6-8.4-0.9c-1.3,0.3-2.1,3.7-2.6,5.9c-1.9,9.2-5.6,17.5-11.7,24.3c2.6-7.1,5.2-14.2,7.7-21.3c0.3-0.9,0.7-2.1,0.4-2.9
		c-0.8-2-1.9-3.8-2.9-5.7c-1.1,1.6-2.6,3-3.1,4.8c-1.8,6.3-3.2,12.7-5.5,18.9C388.6,525,388.1,517.2,393.3,509.8z M401.5,490.8
		c-3.7,3.9-7.4,7.9-11.5,12.2C388,498.9,393,493.5,401.5,490.8z M412.5,478.5c-1.2,3.8-2.4,7.6-3.9,12.1
		C405.9,487.4,407.6,482,412.5,478.5z M416.4,471.8c0.6,0.1,1.3,0.3,1.9,0.4c2.8,4.7-0.4,16.2-5.9,19.7
		C413.9,484.9,415.2,478.3,416.4,471.8z M421.3,454.2c0.3,4,0.9,6.7,0.6,9.3c-0.1,1.2-2,2.1-3,3.2c-0.9-1-2.4-2-2.6-3.2
		C415.7,460.2,416.5,457.1,421.3,454.2z M409.6,602.1c-2-8.9,0.6-15.7,5.8-18c0.5,0.2,1,0.5,1.4,0.7
		C414.4,590.6,412,596.3,409.6,602.1z M411.3,579.2c1.1-2.9,1.9-5.8,3.2-8.6c2.6-5.2,2.5-5.7-3.3-7.9c1.2-3,2.2-6.2,3.9-9
		c0.4-0.7,3.6-1,4.1-0.4c1.2,1.7,1.9,3.8,2.2,5.9C422.5,566.5,418.5,575.2,411.3,579.2z M422.7,529.9c-1.7,6.3-3.1,12.8-8.8,17.8
		c-4.7-6.8,2.5-10.3,3.3-15.3c-3.9-1-5.4,1.4-6.3,4.1c-1.8,5.4-5.1,6.5-10.9,3.8c1.8-2,3.2-4.1,5-5.7c3.8-3.2,7.8-6.2,11.9-8.9
		c1.1-0.8,3.6-0.9,4.6-0.1C422.5,526.2,423,528.6,422.7,529.9z M425.7,463.8c-0.5,0-0.9,0-1.4,0c-0.3-6.9-1.6-13.7,0.2-20.6
		c0.4,0.1,0.8,0.3,1.2,0.4C425.7,450.4,425.7,457.1,425.7,463.8z M411.7,295.5c0.5-0.1,1.1-0.1,1.6-0.2
		c4.2,45.2,12.8,89.9,12.4,135.5c-0.6,0.1-1.2,0.1-1.7,0.2C419.9,385.8,415.8,340.7,411.7,295.5z M413.5,433
		c3.6-0.3,6.3,1.5,6.3,4.8c0.1,3.5-1.1,7.1-2.2,10.6c-0.3,0.9-2.3,1.3-3.6,2c-0.6-1.2-1.4-2.4-1.7-3.7c-0.3-1.5-0.1-3.1-0.1-4.7
		c-0.5-0.1-0.9-0.2-1.4-0.3c-0.8,0.8-1.6,1.6-2.3,2.5c-0.6,0.7-1,1.6-1.5,2.6C403.4,439.4,406.2,433.5,413.5,433z M405.7,429.3
		c1.2-2,2.7-3.8,4-5.6c0.5,0.9,1.6,1.8,1.6,2.7c-0.2,3.3-1.6,5.6-5.7,5.5C405.6,430.8,405.3,429.8,405.7,429.3z M407.8,460.6
		c-2.7,7.5-5.7,14.9-8.6,22.3c-0.8-0.3-1.7-0.5-2.5-0.8c1.3-4,2.9-8,3.9-12.1c0.5-2.3,1.1-6.1-0.1-7.1c-3.1-2.5-4.2,1.5-6,3.2
		c-0.2,0.2-0.6,0.3-1.5,0.7c-0.3-1.2-1-2.5-0.8-3.4c0.7-2.7,1.4-5.7,3-7.8c1.8-2.4,4.5-4.8,7.3-5.5
		C404.6,449.6,408.9,457.7,407.8,460.6z M394.7,445.5c1.7-1.8,3.4-3.6,5.9-6.3c0.6,2,1.6,3.9,1.3,4.2c-1.8,1.5-3.9,2.6-6,3.9
		C395.5,446.7,395.1,446.1,394.7,445.5z M394.5,442c-0.9,1.2-2.2,2.1-3.3,3.2c-0.6-0.3-1.3-0.7-1.9-1c1.9-7.5,3.9-14.9,5.9-22.4
		c0.6-2.4,1.8-4.7,2.2-7.1c0.2-1.4-0.7-2.9-1.1-4.3c-1.3,0.8-3.4,1.3-3.8,2.4c-1.7,5-3,10.1-4.3,15.3c-0.6,2.6-0.6,5.3-1.2,7.9
		c-0.2,0.9-1.4,1.5-2.1,2.3c-0.8-0.9-2.2-1.8-2.2-2.8c0-4-0.4-8.1,0.7-11.9c2.5-8.4,5.6-16.7,8.7-24.9c0.6-1.5,2.6-3.5,4-3.5
		c1.4,0,3.7,1.9,4.1,3.4C404.9,413.8,404.6,428.6,394.5,442z M374,555c0-0.2,0.3-0.5,0.6-0.9c1.2,2.7,2.3,5.3,3.6,8.3
		c3.8-6,1.4-22.2-3.6-25c-1.1-0.6-3.7,1.4-6.2,2.5c-2.3-3.9-2.8-9.4-2.3-15c0.3-3.4,2.5-3.3,4.5-1.5c10.7,9.6,19.4,29.8,6.6,44.6
		c-1,1.2-1.7,2.7-3.4,5.3c-1.2-4.1-2.1-6.8-3-9.9c1.8-0.5,2.8-0.7,3.8-1C374.4,559.6,374.2,557.3,374,555z M318.1,427.4
		c0.5-0.3,0.9-0.5,1.4-0.8c1.2,2.2,2.5,4.3,4.2,7.4C317.2,433.6,318.2,430.1,318.1,427.4z M322.1,435.7c0.5,0.2,1,0.4,1.5,0.6
		c0,0.7-0.4,1.9-0.1,2.1c7.3,4.9,2.1,14.4,7.4,20c0.4,0.4,0.2,1.5,0.3,2.4c-6.2-2.4-11.4-12.1-11.1-20.7
		C320.2,438.6,321.4,437.2,322.1,435.7z M338,427.3c3.8,4.1,7.6,8.3,10.1,13.2c2.1,4.1,2.3,9.1,2.2,14.1c-2.2-3.6-4.3-7.3-6.5-10.9
		c-1-1.5-2-3.2-3.4-4.2c-0.9-0.7-2.8-0.7-3.9-0.2c-0.6,0.3-0.9,2.5-0.5,3.4c1.7,3.4,4,6.5,5.8,9.9c3.3,6,6.4,12.1,9.6,18.1
		c-0.5,0.3-1,0.7-1.4,1c-2.8-3.7-5.9-7.2-8.4-11.1c-5.6-8.8-9.4-18.4-10.7-28.8c-0.2-1.7,0.3-4.8,1.4-5.2
		C333.8,425.9,336.9,426.2,338,427.3z M337,408.9c2.8,4.7,4.9,8.2,7.1,12C337.6,422.3,334.3,417.4,337,408.9z M334.5,467.3
		c9.2,3.5,15.5,10.2,20.1,18.6c2.4,4.3,3.8,9.2,5.5,13.8c1.2,3.3,1.5,7,3.2,9.9c2.7,4.3,2.1,7.3-2.8,10.3c-2.4-3-4.9-6.1-8-10
		c2.1-0.6,3.2-0.9,4.9-1.4c-1.3-1.2-2.1-2.3-3.2-2.9c-14.4-7.5-20.2-21-24.3-35.5C329,466,331.8,466.2,334.5,467.3z M358.7,465
		c1.3,7.7,2.6,14.9,3.9,22.1c-0.6,0.1-1.2,0.3-1.8,0.4C353.3,482.4,351.9,471,358.7,465z M382.7,407.1c-3.2,8-3.6,16.1-3.4,24.5
		c0,1.6-1.4,3.2-2.1,4.8c-0.6-1.6-2.2-3.5-1.8-4.8c2.8-9.6,2.5-19-0.1-28.5c-0.3-1.1,0.1-2.7,0.6-3.8c4.3-9.1,8.8-18.2,13.2-27.3
		c0.4-0.7,0.7-1.5,1.1-2.2c0.5,0.3,1.1,0.5,1.6,0.8c2.3,5.6,1.9,11.3-1,16.6c-2.7,4.9-6.1,9.5-9.1,14.2
		C382.1,402.9,383.4,405.4,382.7,407.1z M381.5,445.8c1.1,4.3,0.8,8.9,1.1,13.6c-1.7-0.2-2.1-0.2-2.3-0.3c-1.6-1.5-3.1-3.1-4.7-4.7
		c-1,2.1-2.3,4.2-2.9,6.4c-1.2,4.5-1.9,9.1-3,13.6c-0.3,1.3-1,2.5-1.8,4.3c-4.3-8.2-2.3-28.6,4.8-34.9
		C376.2,440.9,380.4,441.5,381.5,445.8z M366.6,487c1.5-0.8,4.5,0,6.3,1.1c5,2.8,7.9,8.8,7.8,15.9c-5.6-3.6-5.3-12.7-14.5-13.6
		c5.2,10.2,10.8,19.1,12.5,29.4c-0.5,0.3-1.1,0.7-1.6,1c-1.5-1.7-3.1-3.5-4.6-5.2c-1.3-1.5-2.5-3.1-3.9-4.7c0.3-0.2,1.3-0.9,2.6-1.8
		c-0.3-0.7-0.5-1.4-0.9-1.8c-3.9-4-7.3-8.4-6.7-14.4C363.9,490.7,365,487.8,366.6,487z M382.5,510.5c0,3.5,0,7,0,10.5
		c-0.4,0-0.7,0.1-1.1,0.1c-0.3-3.5-0.6-7-0.9-10.5C381.2,510.6,381.8,510.5,382.5,510.5z M337.7,504.8c4,0.6,12.8,10,13.5,14.3
		c-1.9,0.1-3.9,0.3-6.1,0.4c2.1,3.7,3.7,6.8,6.1,11C342.2,525,336.4,513,337.7,504.8z M369.2,570.4c-4.3-6.4-8.6-12.7-12.9-19.1
		c-0.5,0.2-1,0.5-1.5,0.7c-0.5,1.2-0.9,2.5-1.4,3.7c-0.4,0.1-0.8,0.3-1.2,0.4c-1.8-4.9-3.5-9.8-5.5-15.1
		C357.3,540.9,368.7,556.1,369.2,570.4z M383.6,473.4c3,4,3,11.7,0.1,15.6C376.7,484.4,376.6,478.8,383.6,473.4z M401.2,377.5
		c0.2,3.2,0.9,6.5,0.6,9.6c-0.1,1.3-2.3,2.4-3.5,3.5c-0.7-1.4-2.3-3-2.1-4.1c0.7-3.1,2.2-6.1,3.4-9.1
		C400.1,377.4,400.7,377.4,401.2,377.5z M386.1,237c3.7,5,16.7,112,13.7,118.7c-3.8-1-6.3-2.8-6.4-7.3c-0.7-18.9-1.4-37.9-2.7-56.8
		c-1.1-16.6-3-33.1-4.5-49.7C386,240.4,386.1,239,386.1,237z M390.7,350.3c-0.1,1.2-2.1,2.2-3.3,3.4c-0.4-1.3-1.2-2.6-1-3.8
		c0.6-3.8,1.6-7.6,2.5-11.4c0.5,0,1-0.1,1.5-0.1C390.5,342.3,391,346.3,390.7,350.3z M373.7,378.2c2.6-5.9,5.6-11.7,9.3-17
		c1.5-2.1,5.1-2.8,7.7-4.1c0.7,2.7,1.5,5.4,2.2,8c-0.7-0.2-1.4-0.5-2.1-0.7c-2.1,2.1-5,3.8-6.1,6.3c-3.2,7.3-5.6,14.9-8.5,22.2
		c-0.6,1.4-2.2,2.4-3.3,3.6c-1-1.5-3.1-3.2-2.9-4.5C370.7,387.3,371.8,382.5,373.7,378.2z M358.4,407.6c1-2.8,1.9-5.7,3.3-8.3
		c2-3.9,5.4-3.8,7.6-0.1c0.2,0.3,0.4,0.6,0.5,0.9c2.7,12.6,4,25.3,1.2,38c-0.2,1-1.2,1.8-1.8,2.7c-0.6-0.1-1.3-0.1-1.9-0.2
		c0-5.4,0-10.7,0-16.1c0-3.5,0.5-7,0-10.4c-0.3-1.5-2.7-2.5-4.2-3.8c-0.7,1.6-2.2,3.3-2.1,4.8c0.9,9.6,2.3,19.1,3.4,28.7
		c0.5,4.6-0.7,7.1-5.1,11.2c-0.7-4.2-1.3-7.7-2-11.6c1.7,0.4,2.6,0.6,3.9,0.9c-0.3-1.4-0.5-2.5-0.8-3.5
		C357.3,429.8,354.3,418.9,358.4,407.6z M356.4,455.5c-3.8-9.6-0.4-22.1-12-28.9c6.6-1.5,3.9-5.5,2.7-7.9c-3.3-6.7-7.3-13-10.7-19.7
		c-1.2-2.2-1.6-4.8-1.2-7.6C350.5,410.1,354.6,432.4,356.4,455.5z M333.4,366.8c1.1,5.8,2,10.5,3.1,16.2
		C332.9,380.1,331.5,372.3,333.4,366.8z M323.9,384.3C323.9,384.3,323.9,384.3,323.9,384.3c2.7-2.6,4.5-2.1,5.2,1.7
		c1.5,7.7,2.8,15.5,4.2,23.5C326.6,407.9,322.9,397.4,323.9,384.3c0,0.1-0.1,0.1-0.1,0.2C323.7,384.5,323.8,384.3,323.9,384.3z
		 M320.4,417.3c2.2-1.2,4.3-2.3,6.5-3.5c5.3,6.3,5.2,9.7-1.1,15.8c-0.7-2.1-1.3-3.9-2-5.6c-0.7-1.6-1.7-3.1-2.6-4.6
		c-1,1.2-2,2.4-4,4.9c-1.4-31.5-2.7-62-4-92.5c0.5,0,1,0,1.5-0.1C316.7,360,318.5,388.3,320.4,417.3z M313.4,248.2
		c0.4,0,0.7,0,1.1,0c0,11.5,0,23,0,34.5c-0.4,0-0.7,0-1.1,0C313.4,271.2,313.4,259.7,313.4,248.2z M313.2,287c0.3,0,0.7,0,1,0
		c0,7,0,14,0,21c-0.3,0-0.7,0-1,0C313.2,301,313.2,294,313.2,287z M321.6,496.6c-1.2-6.1-2.5-12.2-3.7-18.4c6.1,5.1,3.1,12.1,5,18.1
		C322.5,496.4,322.1,496.5,321.6,496.6z M321.4,467.3c-1.4,1.1-2,3.2-3,4.9c-0.5,0.1-1,0.1-1.4,0.2c-6.9-52.2-6.4-104.7-5.3-157.4
		c0.2,0.8,0.4,1.6,0.5,2.5c1.5,37.9,3,75.8,4.4,113.7c0.2,4.8-1.1,9.8-0.2,14.4c0.9,4.7,2.8,9.5,5.6,13.3
		C325.6,463.9,326,463.5,321.4,467.3z M325.3,472.5c1.7,4.2,3.3,8.3,5.2,13C324.4,483.4,322.8,479.6,325.3,472.5z M327.6,498.9
		c0.6-1.7,3.6-3.8,5.3-3.6c2.8,0.4,4.4,2.3,2.1,5.8c-1.4,2.2-1.6,5.2-2.6,8.6C327.3,506.7,326.2,502.9,327.6,498.9z M337.1,546.8
		c-0.3-0.4-0.6-0.8-0.7-1.3c-1.5-7.2-4.1-14-7.3-20.5c-0.6-1.2-0.4-2.8-0.8-6c4.4,2.6,7.6,4.4,10.9,6.3c-0.1,0.5-0.2,1.1-0.3,1.6
		c-2,0.4-4,0.8-6.8,1.3c4.9,2.4,9.2,4.5,13.6,6.6c-0.1,0.4-0.3,0.9-0.4,1.3c-1.7,0.5-3.3,0.9-5.2,1.4c1.7,5.6,3.3,10.8,4.9,16.1
		c-0.6,0.4-1.1,0.7-1.7,1.1C341.2,552.2,339.1,549.5,337.1,546.8z M354.5,587.8c-0.5,0.4-1,0.7-1.5,1.1c-1.2-0.7-3-1.1-3.4-2.1
		c-2.7-5.8-5.2-11.7-7.5-17.8c-0.4-1.2,0.4-3.4,1.4-4.3c0.6-0.6,2.8,0.2,4,0.8c5.4,2.8,10.9,5.5,16,8.9c4.2,2.9,8,6.4,11.7,10.1
		c2.3,2.3,2.9,5.1-0.3,7.7c-3.1,2.5-5.3,1-7.3-1.3c-5.1-6-10.1-12.2-15.3-18.1c-1.7-1.9-4-3.2-6-4.8c-0.5,0.2-0.9,0.5-1.4,0.7
		C348.1,575.1,351.3,581.5,354.5,587.8z M380.5,603.7c-0.5,1-4.3,0.5-6.5,0.2c-2.1-0.3-4-1.7-6-2c-5-0.7-6-4.2-6.9-8
		c0.5-0.5,0.9-1,1.4-1.6c2.5,1.7,5.2,3.1,7.4,5.2c5.1,4.9,5.1,5,8-1.4c0.2-0.4,0.5-0.8,0.9-1.5C382.3,597.5,382,601,380.5,603.7z
		 M385.4,587.3c-1-0.7-2.7-1.2-2.8-2.1c-0.6-3.4-0.8-6.9-1.1-10.4c0.7-0.1,1.4-0.2,2.2-0.2c1,3.1,2.3,6.1,3,9.3
		C386.9,584.8,385.9,586.1,385.4,587.3z M391.2,618.1c-1,1.1-2.6,1.7-5.2,3.3c0-10.2,0-19.1,0-28.5c1.3,1.9,2.4,4.2,4,6.1
		c0.8,0.9,2,1.6,3.2,2.2c0.4,0.2,0.8,0.4,1.1,0.7c0.1-0.3,0.3-0.7,0.4-1c0.4-1.1,0.8-2.1,1.3-3.1c2.1-3.3,4.3-6.5,6.4-9.7
		c0.6,0.3,1.1,0.6,1.7,0.9c-0.1,1-0.2,2-0.4,3c-0.6,2.1-1.3,4.2-2,6.4c-0.1,0.3,0.1,0.7,0,1C398.1,605.6,396,612.6,391.2,618.1z"/>
	<path d="M319.5,157.4c0,3,0,6,0,9c0.2-3,0.5-6,0.7-9C320,157.4,319.8,157.4,319.5,157.4z"/>
</g>
</svg>
